<?xml version="1.0" encoding="utf-8"?>
<!-- Generator: Adobe Illustrator 21.0.2, SVG Export Plug-In . SVG Version: 6.00 Build 0)  -->
<svg version="1.1" id="Layer_1" xmlns="http://www.w3.org/2000/svg" xmlns:xlink="http://www.w3.org/1999/xlink" x="0px" y="0px"
	 viewBox="0 0 98 122.5" style="enable-background:new 0 0 98 122.5;" xml:space="preserve">
<path d="M46.3,40.3h-2l0.2-0.6c0.1-0.3,0.2-0.6,0.2-0.8l0.1-0.4h1.1l0.1,0.4c0,0.3,0.1,0.6,0.2,0.8L46.3,40.3z M81,14.1L80.5,14
	v88.8c0,4.3-3.5,7.9-7.9,7.9H19.7l0.1,0.5c0.6,2.6,2.9,4.5,5.6,4.5h54.7c3.1,0,5.7-2.6,5.7-5.7V19.7C85.7,16.9,83.8,14.6,81,14.1z
	 M38.4,42.5h13.8c1.1,0,2,0.9,2,2v24.4c0,1.1-0.9,2-2,2H38.4c-1.1,0-2-0.9-2-2V44.5C36.4,43.4,37.3,42.5,38.4,42.5z M50.2,48.5v-2
	h-9.8v2H50.2z M50.2,54.6v-2h-9.8v2H50.2z M50.2,60.6v-2h-9.8v2H50.2z M50.2,66.9v-2.3h-9.8v2.3H50.2z M45.3,98.6
	c-0.8,0-1.4,0.6-1.4,1.4c0,0.8,0.6,1.4,1.4,1.4c0.8,0,1.4-0.6,1.4-1.4C46.7,99.2,46.1,98.6,45.3,98.6z M31.5,74.7V38.2
	c0-1.1,0.9-2,2-2h5.1v-1.9c0-1.1,0.9-2,2-2H50c1.1,0,2,0.9,2,2v1.9h5.1c1.1,0,2,0.9,2,2v36.5c0,1.1-0.9,2-2,2H33.5
	C32.4,76.7,31.5,75.8,31.5,74.7z M48,38.2v-1.9h-5.5v1.9c0,1.1-0.9,2-2,2h-5.1v32.5h19.6l0-32.5H50C48.9,40.2,48,39.3,48,38.2z
	 M72.6,108.5H17.9c-3.1,0-5.7-2.6-5.7-5.7V12.5c0-3.1,2.6-5.7,5.7-5.7h54.7c1.5,0,2.9,0.6,4,1.7c1.1,1.1,1.7,2.5,1.7,4v90.3
	C78.3,105.9,75.8,108.5,72.6,108.5z M45.3,96.3c-2,0-3.7,1.7-3.7,3.7s1.7,3.7,3.7,3.7S49,102,49,100S47.3,96.3,45.3,96.3z
	 M40.5,15.1h9.6c0.6,0,1.2-0.5,1.2-1.2c0-0.6-0.5-1.2-1.2-1.2h-9.6c-0.6,0-1.2,0.5-1.2,1.2C39.3,14.6,39.8,15.1,40.5,15.1z
	 M16.2,21.1v70h58.1v-70H16.2z"/>
</svg>
