<?xml version="1.0" encoding="utf-8"?>
<!-- Generator: Adobe Illustrator 21.0.2, SVG Export Plug-In . SVG Version: 6.00 Build 0)  -->
<svg version="1.1" id="Layer_1" xmlns="http://www.w3.org/2000/svg" xmlns:xlink="http://www.w3.org/1999/xlink" x="0px" y="0px"
	 viewBox="0 0 100 125" style="enable-background:new 0 0 100 125;" xml:space="preserve">
<title>cart</title>
<path d="M72,6.5H28c-8,0-14.5,5.5-14.5,12.4v87.3c0,6.8,6.5,12.3,14.5,12.4h44c8,0,14.5-5.5,14.5-12.4V18.9C86.5,12,80,6.5,72,6.5z
	 M82.1,18.9v87.3c0,0.6-0.1,1.2-0.2,1.8H18.1c-0.1-0.6-0.2-1.2-0.2-1.8V18.9c0-0.3,0-0.6,0.1-0.9h64.1
	C82.1,18.3,82.1,18.6,82.1,18.9z"/>
<path d="M30.3,54.3h4.3L40.9,73c0.3,0.8,1.1,1.4,2.1,1.4h22.4c0.9,0,1.8-0.5,2.1-1.2l4.2-10c0.4-1-0.2-2-1.3-2.4
	c-1.1-0.3-2.4,0.2-2.8,1.1l-3.7,8.8H44.6L38.4,52c-0.3-0.8-1.1-1.4-2.1-1.4h-5.9c-1.2,0-2.2,0.8-2.2,1.9S29.1,54.3,30.3,54.3z"/>
<path d="M50,59.2c-2.1,0-3.9,1.5-3.9,3.3c0,1.8,1.7,3.3,3.9,3.3c2.1,0,3.9-1.5,3.9-3.3c0,0,0,0,0,0C53.9,60.7,52.1,59.2,50,59.2z"/>
<ellipse cx="50" cy="62.5" rx="3.9" ry="3.3"/>
</svg>
