<svg xmlns="http://www.w3.org/2000/svg" version="1.1" viewBox="-5.0 -10.0 110.0 135.0">
 <path d="m79.84 12.926v74.148c0 2.9219-1.1992 5.5859-3.1328 7.5195-1.9258 1.9336-4.5898 3.1328-7.5195 3.1328h-38.375c-2.9297 0-5.5938-1.1992-7.5234-3.1289-1.9297-1.9297-3.1289-4.5938-3.1289-7.5234v-74.148c0-2.9258 1.1992-5.5859 3.1289-7.5195 1.9297-1.9375 4.5938-3.1367 7.5234-3.1367h38.375c2.9297 0 5.5938 1.1992 7.5234 3.1289 1.9297 1.9297 3.1289 4.5938 3.1289 7.5234zm-33.098-0.23438c-1.1055 0-2-0.89453-2-2 0-1.1055 0.89453-2 2-2h6.5117c1.1055 0 2 0.89453 2 2 0 1.1055-0.89453 2-2 2zm-1.4688 77.902c-1.1055 0-2-0.89453-2-2s0.89453-2 2-2h9.4531c1.1055 0 2 0.89453 2 2s-0.89453 2-2 2zm26.902-80.656c0.76562 0.76562 1.25 1.8281 1.25 2.9883v67.379c0 1.1602-0.48047 2.2188-1.25 2.9883-0.77344 0.76562-1.8359 1.25-2.9883 1.25h-38.375c-1.1602 0-2.2188-0.48047-2.9844-1.25-0.76562-0.76562-1.25-1.8281-1.25-2.9883v-67.379c0-1.0859 0.42578-2.0898 1.1172-2.8438l0.13281-0.14453c0.76562-0.76562 1.8281-1.25 2.9844-1.25h8.3125c1.1055 0 2 0.89453 2 2v1.5508c0 0.98438 0.40625 1.8867 1.0547 2.5352 0.64453 0.65234 1.543 1.0547 2.5352 1.0547h10.562c0.95312 0 1.8203-0.37109 2.5-1.0156 0.6875-0.69141 1.0938-1.5898 1.0938-2.5781v-1.5508c0-1.1055 0.89453-2 2-2h8.3125c1.1602 0 2.2227 0.48047 2.9883 1.25zm3.6641 77.137v-74.148c0-1.8281-0.75-3.4922-1.9531-4.6992-1.207-1.207-2.8672-1.9531-4.6992-1.9531h-38.375c-1.8281 0-3.4883 0.75-4.6953 1.9531-1.2031 1.2031-1.9531 2.8672-1.9531 4.6992v74.148c0 1.8281 0.75 3.4922 1.9531 4.6953 1.207 1.207 2.8672 1.9531 4.6953 1.9531h38.375c1.8281 0 3.4922-0.75 4.6992-1.9531 1.207-1.1992 1.9531-2.8633 1.9531-4.6953z"/>
<text x="0.0" y="117.5" font-size="5.0" font-weight="bold" font-family="Arbeit Regular, Helvetica, Arial-Unicode, Arial, Sans-serif" fill="#000000">Created by White Snow</text><text x="0.0" y="122.5" font-size="5.0" font-weight="bold" font-family="Arbeit Regular, Helvetica, Arial-Unicode, Arial, Sans-serif" fill="#000000">from Noun Project</text></svg>