<?xml version="1.0" encoding="utf-8"?>
<!-- Generator: Adobe Illustrator 21.0.2, SVG Export Plug-In . SVG Version: 6.00 Build 0)  -->
<svg version="1.1" id="Layer_1" xmlns="http://www.w3.org/2000/svg" xmlns:xlink="http://www.w3.org/1999/xlink" x="0px" y="0px"
	 viewBox="0 0 64 80" style="enable-background:new 0 0 64 80;" xml:space="preserve">
<title>mobile market store appstore marketing buy sell</title>
<path d="M32,41.5c1,0,1.9-0.7,1.9-1.5S33,38.5,32,38.5c-1,0-1.9,0.7-1.9,1.5S31,41.5,32,41.5z M32,39.5c0.3,0,0.6,0.2,0.6,0.5
	s-0.3,0.5-0.6,0.5s-0.6-0.2-0.6-0.5S31.7,39.5,32,39.5z"/>
<ellipse cx="32" cy="40" rx="1.2" ry="1"/>
<ellipse cx="32" cy="40" rx="1.2" ry="1"/>
<path d="M46.9,8H17.1c-3.4,0-6.2,2.2-6.2,5v7.6l-9.6,7.7l0,0c-0.1,0.1-0.2,0.2-0.2,0.3c0,0,0,0.1,0,0.1C1,28.8,1,28.8,1,28.9
	c0,0,0,0,0,0.1v4.8c-0.1,2.2,2,4,4.7,4.2c1.5,0.1,3-0.4,4-1.3c0.4,0.3,0.8,0.6,1.2,0.8V51c-1.4,0-2.5,0.9-2.5,2v17
	c0,1.1,1.1,2,2.5,2h42.2c1.4,0,2.5-0.9,2.5-2V53c0-1.1-1.1-2-2.5-2V37.5c0.5-0.2,0.9-0.5,1.3-0.8c1,0.9,2.5,1.4,4,1.3
	c2.7-0.2,4.8-2,4.7-4.2V29c0,0,0,0,0-0.1c0-0.1,0-0.2-0.1-0.3c0,0,0-0.1,0-0.1c-0.1-0.1-0.1-0.2-0.2-0.3l0,0l-9.6-7.7V13
	C53.1,10.2,50.3,8,46.9,8z M53.7,34.7c-0.5,0.1-0.9,0.3-1.2,0.6c-1,0.8-2.6,0.9-3.6,0.1c0,0-0.1-0.1-0.1-0.1
	c-0.3-0.3-0.8-0.5-1.2-0.6V30h6.2V34.7z M38.8,51v-3c-0.1-1.3-0.9-2.5-2.2-3.2c-0.2-0.1-0.2-0.2-0.2-0.4V44c0-0.8-0.8-1.5-1.9-1.5
	h-5c-1,0-1.9,0.7-1.9,1.5v0.4c0,0.2-0.1,0.3-0.2,0.4c-1.1,0.6-1.9,1.6-2.2,2.7h-0.1v-2.1c1-0.3,1.5-1.1,1.1-1.9
	c-0.3-0.8-1.4-1.2-2.4-0.9s-1.5,1.1-1.1,1.9c0.2,0.4,0.6,0.8,1.1,0.9v2.2c-0.7,0.2-1.2,0.8-1.2,1.4v2h-4.3V37.4c2,1,4.7,0.6,6.2-0.8
	c1.8,1.7,4.9,1.8,7,0.4c0.2-0.1,0.3-0.2,0.5-0.4c1.8,1.7,4.9,1.8,7,0.4c0.2-0.1,0.3-0.2,0.5-0.4c1.6,1.4,4.2,1.8,6.2,0.8V51H38.8z
	 M24.6,44.5c-0.3,0-0.6-0.2-0.6-0.5s0.3-0.5,0.6-0.5s0.6,0.2,0.6,0.5S24.9,44.5,24.6,44.5z M35.9,45.7c0.8,0.4,1.4,1.1,1.6,1.8h-11
	c0.2-0.8,0.8-1.4,1.6-1.8c0.5-0.3,0.8-0.7,0.8-1.2V44c0-0.3,0.3-0.5,0.6-0.5h5c0.3,0,0.6,0.2,0.6,0.5v0.4
	C35.1,44.9,35.4,45.4,35.9,45.7z M26.4,51v-2.5h11.2V51H26.4z M24.6,48.5h0.6V51h-1.2v-2C23.9,48.7,24.2,48.5,24.6,48.5z M11.5,35.3
	c-0.3-0.3-0.8-0.5-1.2-0.6V30h6.2v4.7c-0.5,0.1-0.9,0.3-1.2,0.6C14.3,36.1,12.7,36.2,11.5,35.3C11.6,35.4,11.6,35.3,11.5,35.3z
	 M20.8,22L17,28h-5.7l5.6-6H20.8z M41.8,22l3.7,6h-5.8l-1.9-6H41.8z M46.3,34.7c-0.5,0.1-0.9,0.3-1.2,0.6c-1,0.8-2.6,0.9-3.6,0.1
	c0,0-0.1-0.1-0.1-0.1c-0.3-0.3-0.8-0.5-1.2-0.6V30h6.2L46.3,34.7z M17.7,34.7V30h6.2v4.7c-0.5,0.1-0.9,0.3-1.2,0.6
	c-1,0.8-2.6,0.9-3.6,0.1c0,0-0.1-0.1-0.1-0.1C18.6,35,18.2,34.8,17.7,34.7z M25.2,30h6.2v4.7c-0.5,0.1-0.9,0.3-1.2,0.6
	c-1,0.8-2.6,0.9-3.6,0.1c0,0-0.1-0.1-0.1-0.1c-0.3-0.3-0.8-0.5-1.2-0.6L25.2,30z M32.6,30h6.2v4.7c-0.5,0.1-0.9,0.3-1.2,0.6
	c-1,0.8-2.6,0.9-3.6,0.1c0,0-0.1-0.1-0.1-0.1c-0.3-0.3-0.8-0.5-1.2-0.6L32.6,30z M36.6,22l1.9,6h-5.9v-6H36.6z M31.4,28h-5.9l1.9-6
	h4V28z M24.2,28h-5.8l3.7-6h3.9L24.2,28z M47,28l-3.7-6H47l5.6,6H47z M13.4,20v-6.5h3.7c1.3,0,2.5,0.5,3.3,1.4c1,1,2.5,1.6,4.2,1.6
	h14.9c1.6,0,3.1-0.6,4.2-1.6c0.8-0.8,2-1.3,3.3-1.4h3.7V20H13.4z M17.1,10h29.8c1.8,0,3.4,1.1,3.7,2.5h-3.7c-1.6,0-3.1,0.6-4.2,1.6
	c-0.8,0.8-2,1.3-3.3,1.4H24.6c-1.3,0-2.5-0.5-3.3-1.4c-1-1-2.5-1.6-4.2-1.6h-3.7C13.8,11.1,15.3,10,17.1,10z M12.7,22h2.7l-5.6,6
	H5.2L12.7,22z M5.8,36c-1.4-0.1-2.4-1.1-2.3-2.2V30h5.6v4.7c-0.5,0.1-0.9,0.3-1.3,0.6C7.3,35.8,6.6,36,5.8,36z M13.4,38
	c0.3,0,0.6,0,0.9-0.1c0.1,0,0.1,0,0.2,0c0.3-0.1,0.6-0.1,0.9-0.2c0,0,0.1,0,0.1-0.1c0.1,0,0.2-0.1,0.4-0.1V51h-2.5V38z M53.1,70
	h-4.3v-9c0-0.3-0.3-0.5-0.6-0.5s-0.6,0.2-0.6,0.5v9h-31v-3c0-0.3-0.3-0.5-0.6-0.5c-0.3,0-0.6,0.2-0.6,0.5v3h-4.3V53h4.3v11
	c0,0.3,0.3,0.5,0.6,0.5c0.3,0,0.6-0.2,0.6-0.5V53h31v5c0,0.3,0.3,0.5,0.6,0.5s0.6-0.2,0.6-0.5v-5h4.3V70z M50.6,51h-2.5V37.5
	c0.1,0.1,0.2,0.1,0.3,0.1c0,0,0.1,0,0.1,0.1c0.3,0.1,0.6,0.2,0.9,0.2c0.1,0,0.1,0,0.2,0C50,38,50.3,38,50.6,38V51z M60.5,33.8
	c0,1.1-1,2.1-2.3,2.2c-0.7,0-1.5-0.2-2-0.7c-0.3-0.3-0.8-0.5-1.3-0.6V30h5.6V33.8z M54.2,28l-5.6-6h2.7l7.4,6H54.2z"/>
<path d="M40.7,38.3h-2.8l-5.4-4.4c-0.2-0.2-0.6-0.2-0.9,0c0,0,0,0,0,0l-5.4,4.4h-2.8c-1.4,0-2.5,0.9-2.5,2v4c0,1.1,1.1,2,2.5,2h17.4
	c1.4,0,2.5-0.9,2.5-2v-4C43.2,39.1,42,38.3,40.7,38.3z M32,35l4.1,3.3h-8.2L32,35z M23.3,44.3v-4h17.4v4H23.3z"/>
</svg>
